<?xml version="1.0" encoding="UTF-8" standalone="no"?>
<!-- Created with Inkscape (http://www.inkscape.org/) -->

<svg
   xmlns:dc="http://purl.org/dc/elements/1.1/"
   xmlns:cc="http://creativecommons.org/ns#"
   xmlns:rdf="http://www.w3.org/1999/02/22-rdf-syntax-ns#"
   xmlns:svg="http://www.w3.org/2000/svg"
   xmlns="http://www.w3.org/2000/svg"
   xmlns:sodipodi="http://sodipodi.sourceforge.net/DTD/sodipodi-0.dtd"
   xmlns:inkscape="http://www.inkscape.org/namespaces/inkscape"
   width="150"
   height="80"
   viewBox="0 0 39.687499 21.166667"
   version="1.1"
   id="svg8"
   inkscape:version="0.92.2 (5c3e80d, 2017-08-06)"
   sodipodi:docname="arrows.svg">
  <defs
     id="defs2" />
  <sodipodi:namedview
     id="base"
     pagecolor="#ffffff"
     bordercolor="#666666"
     borderopacity="1.0"
     inkscape:pageopacity="0.0"
     inkscape:pageshadow="2"
     inkscape:zoom="2.8"
     inkscape:cx="102.23494"
     inkscape:cy="-12.494001"
     inkscape:document-units="mm"
     inkscape:current-layer="layer1"
     showgrid="false"
     units="px"
     inkscape:window-width="1920"
     inkscape:window-height="1017"
     inkscape:window-x="1912"
     inkscape:window-y="-8"
     inkscape:window-maximized="1" />
  <metadata
     id="metadata5">
    <rdf:RDF>
      <cc:Work
         rdf:about="">
        <dc:format>image/svg+xml</dc:format>
        <dc:type
           rdf:resource="http://purl.org/dc/dcmitype/StillImage" />
        <dc:title></dc:title>
      </cc:Work>
    </rdf:RDF>
  </metadata>
  <g
     inkscape:label="Layer 1"
     inkscape:groupmode="layer"
     id="layer1"
     transform="translate(0,-275.83332)">
    <path
       style="fill:#000000;stroke-width:0.09051289"
       d="m 4.9485139,291.59183 c -2.606389,-2.85491 -4.73888895,-5.24028 -4.73888895,-5.30082 0,-0.0605 2.14182195,-2.45195 4.75960295,-5.31425 l 4.759602,-5.20419 0.02256,4.16334 0.02256,4.16334 H 19.814336 29.854721 l 0.02256,-4.16334 0.02256,-4.16334 4.759602,5.20419 c 2.617782,2.8623 4.759603,5.2495 4.759603,5.30489 0,0.0554 -0.194749,0.29626 -0.432775,0.53527 -0.238026,0.23901 -0.432775,0.48135 -0.432775,0.53852 0,0.0572 -0.03433,0.10395 -0.07629,0.10395 -0.07501,0 -7.794869,8.40023 -8.313613,9.04631 l -0.2656,0.3308 v -4.16121 c 0,-3.65672 -0.01649,-4.17924 -0.136015,-4.30995 -0.122056,-0.13347 -1.146921,-0.14874 -9.986509,-0.14874 -8.126892,0 -9.8673341,0.0222 -9.9467371,0.12682 -0.06662,0.0878 -0.103184,1.40626 -0.118792,4.28299 l -0.02255,4.15617 z"
       id="path4515"
       inkscape:connector-curvature="0" />
  </g>
</svg>
